<svg xmlns="http://www.w3.org/2000/svg" version="1.1" xmlns:xlink="http://www.w3.org/1999/xlink" xmlns:svgjs="http://svgjs.dev/svgjs" width="2000" height="1500" viewBox="0 0 2000 1500"><rect width="2000" height="1500" fill="#ffffff"></rect><g transform="matrix(0.44603033006244425,0,0,0.44603033006244425,552.5801742992043,250)"><svg viewBox="0 0 321 360" data-background-color="#5d3c94" preserveAspectRatio="xMidYMid meet" height="2242" width="2000" xmlns="http://www.w3.org/2000/svg" xmlns:xlink="http://www.w3.org/1999/xlink"><g id="tight-bounds" transform="matrix(1,0,0,1,0.5000025000000505,0)"><svg viewBox="0 0 320 360" height="360" width="320"><g><svg></svg></g><g><svg viewBox="0 0 320 360" height="360" width="320"><g><path transform="translate(-19.44751,3.1739) scale(3.53591,3.53591)" d="M67.6 10.7c0.2 0 1.8 0.8 2.7 1.1-0.3 0.1-1-0.2-1.8-0.5 0.2 0 0.6 0.1 1 0.3-0.2-0.2-1.7-0.7-1.9-0.9M52.7 7.6c0.3-0.1 3.8 0.4 5.4 0.5 0.1-0.1-0.2-0.1-0.6-0.2 0.5-0.1 1.5 0.2 2.2 0.3-2.1 0.1-4.4-0.5-6.4-0.3-0.7 0-0.2-0.2-0.6-0.3M49.8 7.6c1.8 0 3.2 0 0.6 0.2-0.3-0.1-0.7-0.1-0.6-0.2M78.1 15.9c0.2 0 1 0.9 1.4 1.2-0.1 0.1-0.9-0.7-1.3-1 0.1 0.1 0 0-0.1-0.2M76.1 14.6c-0.8-0.7-1.1-0.7-1.2-1.1 0.7 0.4 1.2 0.8 1.2 1.1M63.2 8.3c0.1-0.1 0.3 0.1 0.8 0.2-0.6-0.1-0.5 0-0.3 0.2-0.7-0.1-0.9-0.2-0.7-0.4 0.4 0.2 0.5 0.1 0.2 0M34.8 9.5c0-0.1 0.4-0.3 0.7-0.4-0.3 0.2-0.2 0.3 0.3 0.1 0 0.1-0.6 0.3-1 0.5 0.2-0.1 0.4-0.4 0-0.2M65.2 7.3c-0.3 0.1-1.4-0.5-2.5-0.7-0.6-0.2 2.4 0.5 2.5 0.7M6.2 56.7c0.6 2.5 0.2 2.4 0 0M6.3 41.7c0.1-0.4 0.2-1.5 0.3-1.4-0.3 2.4-0.8 3.5-0.9 5.3 0.3-1.6-0.1 0.9-0.2 1.5 0.1 0.8 0.1-0.5 0.3-0.3 0.2 0.3-0.4 4.5-0.2 2.2-0.2 2.1 0 4.4 0.4 5-0.5 3.2 2 10.4 2.5 11.9 0.1 0.1 0-0.5 0.2-0.1 0.2 1.3 1.1 2.2 1.4 3.6 0.3 0.4 1.5 2.6 1.7 3.1 0.4 0.8 0.6 0.7 1 1.5 1.2 2.3 3.1 4.5 4.9 6.6 5.8 6.8 14.7 12.4 24.6 14.4 9.9 2.1 20.3 0.6 28.4-3.3 0.5-0.3 0.4-0.4 1-0.6 2.8-0.9 6.2-3.8 8.1-4.9 0.9-1 3.3-2.7 3.6-3.7 1.7-1.4 3.4-3.7 4.3-5.2 0.5-0.8 0.9-0.8 1.1-1.3-0.1 0 1.6-2.1 2.1-3.3-0.2 0-0.5 0.6-0.5 0 3.6-6.9 5.6-16.2 4.5-22.6 0.2 7.9-1.8 16.7-5.6 22.3-1.7 3.6-5.2 7.5-8.4 10.3-0.5 0.5-1 1.1-1.6 1.5-1.9 1.6-4 2.9-6.2 4.1-5.2 2.9-11 5.4-17.8 5.5 11.7-1 22.2-6.9 28-14.1-4.4 4.3-6.3 6-11.2 8.5-0.4 0.7-3.7 2.1-5.9 2.7 1.3-0.6 4-1.6 4.9-2.4-7.3 3.5-15.4 5.5-23 4.4 2.9 0 7 0.1 10.9-0.6 0.6-0.2 0.9-0.4 1.6-0.5 7.6-1.7 14.9-5.4 20.1-10.6-3 2.7-7.5 5.9-10.4 6.9 2.7-1.5 7.6-4.4 9.2-6.6-3.2 3.2-9.2 6.4-13 7.8-0.6 0.1 0.4-0.4-0.6 0-1.2 0.3-0.7 0.3-1 0.5-4.6 1.3-9.9 2.4-14.3 2-0.8-0.1-1.1-0.3-1.8-0.3-0.8-0.1-1.5-0.1-2.4-0.1-3.5-0.4-7.3-1.8-10.1-3-1.5-0.7-3-1.2-4.5-2.1-1.2-0.7-2.2-1.5-3.2-2.3-3.8-2.8-7-5.6-10-9.6-5.4-7.5-8.2-16.9-7.8-26.2 0.4-9.3 4.1-18.4 10-25.1-0.3 0.3 0.4-0.7 1-1.3 0 0.2-0.1 0.5 0.6-0.2 0.6-0.7-0.2-0.2 0.1-0.6 6.2-6.8 17-12.3 28.1-12.5 0.4-0.3 1.1-0.7 1.9-0.5 0 0.1-0.5 0.1-0.5 0.1 1.1-0.1 2.1-0.1 2.6 0.1 0.1-0.1-0.4-0.2 0-0.2 0.7 0.2 0.9 0 1.3 0.2-0.3 0-0.6 0-0.8 0.1 2.5 0 4.1 0.6 6.6 0.8-1.3-0.3-1.6-0.3-2.6-0.6 1.1 0.2 1.6 0.4 2.1 0.3-0.2 0-0.1-0.3 0.1-0.2 2 0.5 2.2 0.7 4.3 1.4 0.2-0.2-0.9-0.3-1.2-0.6 2 0.7 3.8 1.2 5 2-0.4-0.3-1.6-0.7-2.5-1.1-0.1 0.1 0.3 0.2 0.4 0.4-1-0.5-2.4-1-3.8-1.2 1.2 0.3 2 0.7 2.5 0.9-1.1-0.2-2.5-0.9-4.1-1.2 2.6 0.8 7.5 2.6 10.5 4.2-1.1-0.7-2.4-1.2-3.1-1.6 0.6 0.1 1.3 0.5 1.3 0.3 0.7 0.3 1.6 1 2.1 1.1-0.9-0.6-2.7-1.5-3.3-1.8 7.5 3.4 14.2 9.1 18.5 16.4 0.4 0.7 1 2.3 1.5 2.5-0.1-0.5-0.5-0.8-0.9-1.6 0.2 0 0.2-0.3 0-0.6-0.4-0.5 0 0.4-0.4-0.1-1.8-3.3-4-6.2-7.4-9.4 1.9 1.8 0.5 0.5 0.1-0.1 2.6 2.3 5.6 6.2 6.9 8.2-0.2-0.3-0.3-0.5-0.2-0.5 2.4 4.1 3.9 7.8 5.4 13.1 0.1 0.1 0-0.4 0.2-0.1 1 4.2 1.3 7.7 1.2 10.9 0.8-5.4-1-13.8-4.2-20.4-0.4-0.8-0.4-0.2-0.8-1.1 0-0.3-0.3-0.9-0.5-1.3-4-6.6-8.9-11.3-14.7-15 0.4 0.2 1.2 0.8 1.2 0.7-10.8-7.1-23.3-8.1-33.6-5.9-0.7 0.3-1 0.6-1.8 1 1.5-0.5 2.4-0.6 3.8-0.9 0.3-0.3-1.3 0.1-0.6-0.2 0.1 0.1 1.4-0.2 1.7-0.1 0 0.1-0.4 0.2-0.5 0.3 3.3-0.7 6.7-0.8 9.6-0.6-1.7 0.1-4.8-0.2-5.8 0.3 1-0.1 2.4-0.2 3.3-0.1-1.2 0-3.4 0.1-4.4 0.2-0.1-0.1 1.6-0.3 0.5-0.3-0.5 0.1-1.3 0.1-1.6 0.4-8.6 0.8-17 5.3-22.9 10.6-1.2 1-2.6 2.1-3.5 3.2-2.2 2.5-3.6 5-5.2 7.2 1-2.1 3.2-5.3 5.8-8 2.6-2.7 5.4-5 6.9-6.2 0 0.4 2.4-1.5 3.3-2.1-0.6 0.5 0.4-0.2 0.6-0.1 3.2-1.9 5.8-2.6 8.7-3.7-0.7 0.2-1.3 0.4-1.4 0.3 0.7-0.2 1.1-0.4 1-0.5-2.8 0.8-7.2 2.7-10.7 4.8 6.3-4.3 14.3-6.9 22.2-7 7.9-0.2 15.6 1.8 21.7 5 4.1 1.8 8 5.1 11.1 8.3 0.9 0.8 0.2-0.2 1.5 1.2-0.4-0.2-0.7-0.4-0.2 0.2 0.8 0.9-0.2-0.7 1.1 0.9-0.1 0-0.5-0.5-0.5-0.3 3.5 3.1 6.2 8.7 7.8 12.4-0.4-1.5-1.4-3.6-2.2-5.1 2.4 4.4 3.2 7 4.2 10.9 0.4 0.3-0.2-1.4 0.2-0.6 0.1 0.6 0.2 2.5 0.6 2.8-0.3-1.9-0.8-4.2-1.2-4.6 0.3 0.2-0.5-2.3-1-2.9-0.2-1.6-1.6-4.4-2.8-6.5-4.3-8.4-12-15.3-20.6-19.1 0-0.2-0.5-0.4-0.7-0.6-8.5-3.6-18.7-4.6-28.5-2.3-9.9 2.4-19.2 8.1-25.8 16.3 0.3-1 2.8-2.9 2.9-3.7-2.9 3.1-6 7.2-8.1 11.6-2.2 4.4-3.4 8.9-3.9 12.2" fill="#000000" fill-rule="nonzero" stroke="none" stroke-width="1" stroke-linecap="butt" stroke-linejoin="miter" stroke-miterlimit="10" stroke-dasharray="" stroke-dashoffset="0" font-family="none" font-weight="none" font-size="none" text-anchor="none" style="mix-blend-mode: normal" data-fill-palette-color="tertiary"></path></g><g transform="matrix(1,0,0,1,48,110.43710072267407)"><svg viewBox="0 0 224 139.12579855465185" height="139.12579855465185" width="224"><g><svg viewBox="0 0 224 139.12579855465185" height="139.12579855465185" width="224"><g transform="matrix(1,0,0,1,0,57.07721111874484)"><svg viewBox="0 0 224 82.048587435907" height="82.048587435907" width="224"><g id="textblocktransform"><svg viewBox="0 0 224 82.048587435907" height="82.048587435907" width="224" id="textblock"><g><svg viewBox="0 0 224 45.99263664684225" height="45.99263664684225" width="224"><g transform="matrix(1,0,0,1,0,0)"><svg width="224" viewBox="4 -35.6 176.53 36.25" height="45.99263664684225" data-palette-color="#f9d264"><path d="M18.45-18.45Q22.25-17.85 24.33-15.58 26.4-13.3 26.4-9.5L26.4-9.5Q26.4-4.45 22.85-2.23 19.3 0 12.35 0L12.35 0 7.35 0Q6.15 0 5.43-0.65 4.7-1.3 4.7-2.5L4.7-2.5 4.7-28.6Q4.7-29.75 4.53-31.43 4.35-33.1 4-34.2L4-34.2Q6.4-35.35 11.55-35.35L11.55-35.35Q18.05-35.35 21.35-33.35 24.65-31.35 24.65-26.9L24.65-26.9Q24.65-23.75 23.03-21.53 21.4-19.3 18.45-18.45L18.45-18.45ZM11.4-33.45Q9.75-33.45 9.3-33.4L9.3-33.4 9.3-19.2 13.1-19.2Q16.2-19.15 18-21.08 19.8-23 19.8-26.6L19.8-26.6Q19.8-30.1 17.82-31.78 15.85-33.45 11.4-33.45L11.4-33.45ZM12.4-1.95Q16.9-1.95 19.15-3.78 21.4-5.6 21.4-9.45L21.4-9.45Q21.4-13.85 19.1-15.58 16.8-17.3 12.45-17.3L12.45-17.3 9.3-17.3 9.3-1.95 12.4-1.95ZM35.65-29.75Q34.4-29.75 33.55-30.6 32.7-31.45 32.7-32.65L32.7-32.65Q32.7-33.9 33.55-34.75 34.4-35.6 35.65-35.6L35.65-35.6Q36.85-35.6 37.7-34.75 38.55-33.9 38.55-32.65L38.55-32.65Q38.55-31.45 37.7-30.6 36.85-29.75 35.65-29.75L35.65-29.75ZM38.1-6Q38.1-2.3 38.8-0.45L38.8-0.45Q37.75 0.6 36.2 0.6L36.2 0.6Q35.1 0.6 34.37-0.08 33.65-0.75 33.65-1.9L33.65-1.9 33.6-19.55Q33.6-23.3 32.9-25.15L32.9-25.15Q34.2-26.15 35.5-26.15L35.5-26.15Q36.65-26.15 37.35-25.5 38.05-24.85 38.05-23.7L38.05-23.7 38.1-6ZM53.15-25.45Q54-25.45 55.45-25.5 56.9-25.55 57.75-25.6L57.75-25.6 57.7-24.4Q57.65-23.8 57.3-23.48 56.95-23.15 56.45-23.15L56.45-23.15 51.5-23.15 51.5-21.35 51.45-5.65Q51.45-2.95 53.85-2.95L53.85-2.95Q54.55-2.95 55.22-3.2 55.9-3.45 56.1-3.9L56.1-3.9Q56.7-3.1 56.7-2.2L56.7-2.2Q56.7-0.95 55.45-0.2 54.2 0.55 52.2 0.55L52.2 0.55Q49.75 0.55 48.35-1 46.95-2.55 46.95-5.3L46.95-5.3 46.95-23.15 46.2-23.15Q44.2-23.15 43.2-23L43.2-23 43.25-24.25Q43.3-24.85 43.65-25.15 44-25.45 44.55-25.45L44.55-25.45 46.95-25.45 46.95-29.65Q46.95-30.8 47.67-31.45 48.4-32.1 49.6-32.1L49.6-32.1Q51-32.1 52.15-31.1L52.15-31.1Q51.6-29.2 51.55-25.45L51.55-25.45 53.15-25.45ZM82.04-6.6Q82.79-6.3 82.79-5.45L82.79-5.45Q82.79-4.9 82.44-4.05L82.44-4.05Q81.54-1.75 79.14-0.55 76.74 0.65 73.44 0.65L73.44 0.65Q67.89 0.65 64.72-2.8 61.54-6.25 61.54-12.65L61.54-12.65Q61.54-18.95 64.69-22.55 67.84-26.15 73.64-26.15L73.64-26.15Q77.84-26.15 80.42-24.25 82.99-22.35 82.99-18.85L82.99-18.85Q82.99-15.15 79.99-13.2 76.99-11.25 71.74-11.25L71.74-11.25Q69.09-11.25 66.44-11.55L66.44-11.55Q67.04-2.35 74.59-2.35L74.59-2.35Q77.29-2.35 79.27-3.48 81.24-4.6 82.04-6.6L82.04-6.6ZM73.44-24.25Q70.19-24.25 68.32-21.45 66.44-18.65 66.39-13.4L66.39-13.4Q67.44-13.3 69.74-13.2L69.74-13.2Q73.54-13.2 75.84-14.58 78.14-15.95 78.14-19.5L78.14-19.5Q78.14-22.1 76.79-23.18 75.44-24.25 73.44-24.25L73.44-24.25ZM101.39 0.65Q94.99 0.65 91.49-4 87.99-8.65 87.99-17.35L87.99-17.35Q87.99-26 91.59-30.68 95.19-35.35 101.69-35.35L101.69-35.35Q104.34-35.35 106.69-34.68 109.04-34 110.47-32.8 111.89-31.6 111.89-30.1L111.89-30.1Q111.89-29 110.89-28.25 109.89-27.5 108.24-27.55L108.24-27.55Q107.84-30.4 106.17-31.9 104.49-33.4 101.74-33.4L101.74-33.4Q97.44-33.4 95.24-29.38 93.04-25.35 93.04-17.35L93.04-17.35Q93.04-9.4 95.22-5.35 97.39-1.3 101.64-1.3L101.64-1.3Q104.39-1.3 106.42-3.08 108.44-4.85 109.04-8.1L109.04-8.1 109.64-8.15Q110.99-8.15 111.92-7.55 112.84-6.95 112.84-5.8L112.84-5.8Q112.84-4.05 111.22-2.55 109.59-1.05 106.94-0.2 104.29 0.65 101.39 0.65L101.39 0.65ZM141.79-3.95Q142.34-3.15 142.34-2.25L142.34-2.25Q142.34-1.1 141.26-0.3 140.19 0.5 138.64 0.5L138.64 0.5Q136.34 0.5 135.19-1.1 134.04-2.7 134.04-6.1L134.04-6.1 134.04-6.9Q132.49-3.5 129.74-1.48 126.99 0.55 123.59 0.55L123.59 0.55Q120.69 0.55 118.99-1.03 117.29-2.6 117.29-5.25L117.29-5.25Q117.29-8.25 119.59-10.33 121.89-12.4 125.64-13.45L125.64-13.45Q129.64-14.5 133.79-14.35L133.79-14.35 133.79-15.6Q133.79-20.05 132.41-22.15 131.04-24.25 127.84-24.25L127.84-24.25Q125.79-24.25 124.39-23.3 122.99-22.35 122.99-20.25L122.99-20.25Q122.99-19.15 123.51-18.13 124.04-17.1 125.09-16.7L125.09-16.7Q124.19-15.65 122.44-15.65L122.44-15.65Q120.64-15.65 119.54-16.98 118.44-18.3 118.44-20.1L118.44-20.1Q118.44-23 121.06-24.58 123.69-26.15 128.24-26.15L128.24-26.15Q133.49-26.15 135.96-23.55 138.44-20.95 138.44-15.35L138.44-15.35 138.44-5.65Q138.44-3 140.19-3L140.19-3Q140.59-3 141.04-3.25 141.49-3.5 141.79-3.95L141.79-3.95ZM125.54-2.55Q127.39-2.55 129.34-3.98 131.29-5.4 132.59-7.73 133.89-10.05 133.94-12.65L133.94-12.65Q132.09-12.75 130.04-12.48 127.99-12.2 126.59-11.6L126.59-11.6Q124.49-10.8 123.36-9.45 122.24-8.1 122.24-6.25L122.24-6.25Q122.24-4.65 123.04-3.6 123.84-2.55 125.54-2.55L125.54-2.55ZM157.94-26.15Q160.54-26.15 162.16-24.73 163.79-23.3 163.79-20.85L163.79-20.85Q163.79-19.1 162.79-18 161.79-16.9 160.39-16.9L160.39-16.9Q159.14-16.9 158.59-17.55L158.59-17.55Q159.14-18.4 159.34-19.1 159.54-19.8 159.54-20.75L159.54-20.75Q159.54-23.75 156.79-23.75L156.79-23.75Q154.64-23.75 153.21-20.85 151.79-17.95 151.79-12L151.79-12Q151.79-5.85 151.89-3.93 151.99-2 152.54-0.55L152.54-0.55Q152.14-0.15 151.46 0.15 150.79 0.45 149.89 0.5L149.89 0.5Q148.79 0.5 148.04-0.23 147.29-0.95 147.29-2.2L147.29-2.2 147.29-20.05Q147.29-21.4 146.96-22 146.64-22.6 145.89-22.6L145.89-22.6Q144.94-22.6 144.59-21.9L144.59-21.9Q143.99-22.75 143.99-23.55L143.99-23.55Q143.99-24.7 144.84-25.4 145.69-26.1 147.19-26.1L147.19-26.1Q149.19-26.1 150.26-24.68 151.34-23.25 151.29-20.5L151.29-20.5Q152.14-23.25 153.84-24.7 155.54-26.15 157.94-26.15L157.94-26.15ZM175.93-25.45Q176.78-25.45 178.23-25.5 179.68-25.55 180.53-25.6L180.53-25.6 180.48-24.4Q180.43-23.8 180.08-23.48 179.73-23.15 179.23-23.15L179.23-23.15 174.28-23.15 174.28-21.35 174.23-5.65Q174.23-2.95 176.63-2.95L176.63-2.95Q177.33-2.95 178.01-3.2 178.68-3.45 178.88-3.9L178.88-3.9Q179.48-3.1 179.48-2.2L179.48-2.2Q179.48-0.95 178.23-0.2 176.98 0.55 174.98 0.55L174.98 0.55Q172.53 0.55 171.13-1 169.73-2.55 169.73-5.3L169.73-5.3 169.73-23.15 168.98-23.15Q166.98-23.15 165.98-23L165.98-23 166.03-24.25Q166.08-24.85 166.43-25.15 166.78-25.45 167.33-25.45L167.33-25.45 169.73-25.45 169.73-29.65Q169.73-30.8 170.46-31.45 171.18-32.1 172.38-32.1L172.38-32.1Q173.78-32.1 174.93-31.1L174.93-31.1Q174.38-29.2 174.33-25.45L174.33-25.45 175.93-25.45Z" opacity="1" transform="matrix(1,0,0,1,0,0)" fill="#000000" class="wordmark-text-0" data-fill-palette-color="primary" id="text-0"></path></svg></g></svg></g><g transform="matrix(1,0,0,1,43.68000000000001,56.850394335882186)"><svg viewBox="0 0 136.64 25.198193100024817" height="25.198193100024817" width="136.64"><g transform="matrix(1,0,0,1,0,0)"><svg width="136.64" viewBox="4 -36.5 201.43 37.15" height="25.198193100024817" data-palette-color="#f9d264"><path d="M23.45-4.1Q23.9-3.85 24.13-3.2 24.35-2.55 24.35-1.85L24.35-1.85Q24.35-1.05 24.05-0.53 23.75 0 23.2 0L23.2 0 7.35 0Q6.15 0 5.43-0.65 4.7-1.3 4.7-2.5L4.7-2.5 4.7-28.1Q4.7-31.45 4-33.5L4-33.5Q4.75-34.2 5.6-34.45 6.45-34.7 7.95-34.7L7.95-34.7 22.95-34.7Q23.75-34.7 23.75-33.4L23.75-33.4Q23.75-32.6 23.38-31.78 23-30.95 22.45-30.7L22.45-30.7Q15.95-32.1 9.2-32.25L9.2-32.25 9.25-19.5 21.2-19.5Q21.35-18.85 21.35-18.2L21.35-18.2Q21.35-17.45 21.2-16.85L21.2-16.85 9.25-16.85 9.3-2.4Q12.65-2.45 16.53-2.95 20.4-3.45 23.45-4.1L23.45-4.1ZM53.65-3.95Q54.2-3.15 54.2-2.25L54.2-2.25Q54.2-1.1 53.12-0.3 52.05 0.5 50.5 0.5L50.5 0.5Q48.2 0.5 47.05-1.1 45.9-2.7 45.9-6.1L45.9-6.1 45.9-6.9Q44.35-3.5 41.6-1.48 38.85 0.55 35.45 0.55L35.45 0.55Q32.55 0.55 30.85-1.03 29.15-2.6 29.15-5.25L29.15-5.25Q29.15-8.25 31.45-10.33 33.75-12.4 37.5-13.45L37.5-13.45Q41.5-14.5 45.65-14.35L45.65-14.35 45.65-15.6Q45.65-20.05 44.27-22.15 42.9-24.25 39.7-24.25L39.7-24.25Q37.65-24.25 36.25-23.3 34.85-22.35 34.85-20.25L34.85-20.25Q34.85-19.15 35.37-18.13 35.9-17.1 36.95-16.7L36.95-16.7Q36.05-15.65 34.3-15.65L34.3-15.65Q32.5-15.65 31.4-16.98 30.3-18.3 30.3-20.1L30.3-20.1Q30.3-23 32.92-24.58 35.55-26.15 40.1-26.15L40.1-26.15Q45.35-26.15 47.82-23.55 50.3-20.95 50.3-15.35L50.3-15.35 50.3-5.65Q50.3-3 52.05-3L52.05-3Q52.45-3 52.9-3.25 53.35-3.5 53.65-3.95L53.65-3.95ZM37.4-2.55Q39.25-2.55 41.2-3.98 43.15-5.4 44.45-7.73 45.75-10.05 45.8-12.65L45.8-12.65Q43.95-12.75 41.9-12.48 39.85-12.2 38.45-11.6L38.45-11.6Q36.35-10.8 35.22-9.45 34.1-8.1 34.1-6.25L34.1-6.25Q34.1-4.65 34.9-3.6 35.7-2.55 37.4-2.55L37.4-2.55ZM65.45-25.45Q66.3-25.45 67.75-25.5 69.2-25.55 70.05-25.6L70.05-25.6 70-24.4Q69.95-23.8 69.59-23.48 69.25-23.15 68.75-23.15L68.75-23.15 63.8-23.15 63.8-21.35 63.75-5.65Q63.75-2.95 66.15-2.95L66.15-2.95Q66.84-2.95 67.52-3.2 68.2-3.45 68.4-3.9L68.4-3.9Q69-3.1 69-2.2L69-2.2Q69-0.95 67.75-0.2 66.5 0.55 64.5 0.55L64.5 0.55Q62.05 0.55 60.65-1 59.25-2.55 59.25-5.3L59.25-5.3 59.25-23.15 58.5-23.15Q56.5-23.15 55.5-23L55.5-23 55.55-24.25Q55.6-24.85 55.95-25.15 56.3-25.45 56.85-25.45L56.85-25.45 59.25-25.45 59.25-29.65Q59.25-30.8 59.97-31.45 60.7-32.1 61.9-32.1L61.9-32.1Q63.3-32.1 64.45-31.1L64.45-31.1Q63.9-29.2 63.85-25.45L63.85-25.45 65.45-25.45ZM105.59-34.7Q106.39-34.7 106.39-33.4L106.39-33.4Q106.39-32.6 106.02-31.78 105.64-30.95 105.09-30.7L105.09-30.7Q98.59-32.1 91.84-32.25L91.84-32.25 91.89-19.3 103.79-19.3Q103.94-18.65 103.94-17.95L103.94-17.95Q103.94-17.25 103.79-16.65L103.79-16.65 91.89-16.65 91.94-6Q91.94-2.3 92.64-0.45L92.64-0.45Q91.44 0.6 89.99 0.6L89.99 0.6Q88.79 0.6 88.07-0.08 87.34-0.75 87.34-1.9L87.34-1.9 87.34-28.1Q87.34-31.45 86.64-33.5L86.64-33.5Q87.39-34.2 88.24-34.45 89.09-34.7 90.59-34.7L90.59-34.7 105.59-34.7ZM123.84-26.15Q126.44-26.15 128.06-24.73 129.69-23.3 129.69-20.85L129.69-20.85Q129.69-19.1 128.69-18 127.69-16.9 126.29-16.9L126.29-16.9Q125.04-16.9 124.49-17.55L124.49-17.55Q125.04-18.4 125.24-19.1 125.44-19.8 125.44-20.75L125.44-20.75Q125.44-23.75 122.69-23.75L122.69-23.75Q120.54-23.75 119.11-20.85 117.69-17.95 117.69-12L117.69-12Q117.69-5.85 117.79-3.93 117.89-2 118.44-0.55L118.44-0.55Q118.04-0.15 117.36 0.15 116.69 0.45 115.79 0.5L115.79 0.5Q114.69 0.5 113.94-0.23 113.19-0.95 113.19-2.2L113.19-2.2 113.19-20.05Q113.19-21.4 112.86-22 112.54-22.6 111.79-22.6L111.79-22.6Q110.84-22.6 110.49-21.9L110.49-21.9Q109.89-22.75 109.89-23.55L109.89-23.55Q109.89-24.7 110.74-25.4 111.59-26.1 113.09-26.1L113.09-26.1Q115.09-26.1 116.16-24.68 117.24-23.25 117.19-20.5L117.19-20.5Q118.04-23.25 119.74-24.7 121.44-26.15 123.84-26.15L123.84-26.15ZM153.64-6.6Q154.39-6.3 154.39-5.45L154.39-5.45Q154.39-4.9 154.04-4.05L154.04-4.05Q153.14-1.75 150.74-0.55 148.34 0.65 145.04 0.65L145.04 0.65Q139.49 0.65 136.31-2.8 133.14-6.25 133.14-12.65L133.14-12.65Q133.14-18.95 136.29-22.55 139.44-26.15 145.24-26.15L145.24-26.15Q149.44-26.15 152.01-24.25 154.59-22.35 154.59-18.85L154.59-18.85Q154.59-15.15 151.59-13.2 148.59-11.25 143.34-11.25L143.34-11.25Q140.69-11.25 138.04-11.55L138.04-11.55Q138.64-2.35 146.19-2.35L146.19-2.35Q148.89-2.35 150.86-3.48 152.84-4.6 153.64-6.6L153.64-6.6ZM145.04-24.25Q141.79-24.25 139.91-21.45 138.04-18.65 137.99-13.4L137.99-13.4Q139.04-13.3 141.34-13.2L141.34-13.2Q145.14-13.2 147.44-14.58 149.74-15.95 149.74-19.5L149.74-19.5Q149.74-22.1 148.39-23.18 147.04-24.25 145.04-24.25L145.04-24.25ZM167.93 0.65Q163.23 0.65 160.88-1 158.53-2.65 158.53-5.35L158.53-5.35Q158.53-6.65 159.21-7.5 159.88-8.35 161.33-8.35L161.33-8.35Q161.58-8.35 162.18-8.25L162.18-8.25Q162.03-7.6 162.03-7L162.03-7Q162.03-6.4 162.08-6.05L162.08-6.05Q162.23-3.9 163.88-2.63 165.53-1.35 168.38-1.35L168.38-1.35Q171.03-1.35 172.66-2.33 174.28-3.3 174.28-5.1L174.28-5.1Q174.28-6.35 173.61-7.23 172.93-8.1 171.91-8.7 170.88-9.3 169.03-10.15L169.03-10.15 167.48-10.85Q164.73-12.15 163.23-13.08 161.73-14 160.63-15.6 159.53-17.2 159.53-19.55L159.53-19.55Q159.53-22.9 162.11-24.55 164.68-26.2 168.68-26.2L168.68-26.2Q172.83-26.2 175.18-24.9 177.53-23.6 177.53-21.2L177.53-21.2Q177.53-20.2 177.01-19.53 176.48-18.85 175.38-18.75L175.38-18.75Q175.13-18.7 174.68-18.7L174.68-18.7Q174.18-18.7 173.88-18.8L173.88-18.8Q173.93-19.05 173.93-19.7L173.93-19.7Q173.93-20.5 173.73-21.05L173.73-21.05Q173.53-22.6 172.16-23.43 170.78-24.25 168.53-24.25L168.53-24.25Q166.43-24.25 165.06-23.45 163.68-22.65 163.68-20.95L163.68-20.95Q163.68-19.5 164.51-18.45 165.33-17.4 166.48-16.73 167.63-16.05 170.03-14.9L170.03-14.9 170.98-14.45Q173.48-13.25 174.96-12.35 176.43-11.45 177.48-10.05 178.53-8.65 178.53-6.65L178.53-6.65Q178.53-3.65 176.01-1.5 173.48 0.65 167.93 0.65L167.93 0.65ZM204.73-6Q204.73-2.5 205.43-0.45L205.43-0.45Q204.28 0.6 202.88 0.6L202.88 0.6Q201.73 0.6 201.01-0.08 200.28-0.75 200.28-1.9L200.28-1.9 200.23-15.2Q200.23-19.55 199.13-21.65 198.03-23.75 195.33-23.75L195.33-23.75Q193.63-23.75 192.11-22.53 190.58-21.3 189.61-18.65 188.63-16 188.63-12L188.63-12Q188.63-5.75 188.76-3.8 188.88-1.85 189.43-0.4L189.43-0.4Q188.33 0.6 186.83 0.6L186.83 0.6Q185.68 0.6 184.93-0.13 184.18-0.85 184.18-2.1L184.18-2.1 184.18-34.05Q184.13-35.25 184.83-35.88 185.53-36.5 186.63-36.5L186.63-36.5Q187.48-36.5 188.26-36.18 189.03-35.85 189.43-35.5L189.43-35.5Q188.98-34.1 188.83-32.18 188.68-30.25 188.63-26.9L188.63-26.9 188.58-20.5Q189.68-23.2 191.78-24.68 193.88-26.15 196.73-26.15L196.73-26.15Q204.73-26.15 204.73-15.8L204.73-15.8 204.73-6Z" opacity="1" transform="matrix(1,0,0,1,0,0)" fill="#000000" class="slogan-text-1" data-fill-palette-color="secondary" id="text-1"></path></svg></g></svg></g></svg></g></svg></g><g transform="matrix(1,0,0,1,76.69984,0)"><svg viewBox="0 0 70.60032000000001 46.21945342970491" height="46.21945342970491" width="70.60032000000001"><g><svg xmlns="http://www.w3.org/2000/svg" xmlns:xlink="http://www.w3.org/1999/xlink" version="1.1" x="8" y="0" viewBox="21.731 26.068057897173418 56.543 47.863942102826584" enable-background="new 0 0 100 100" xml:space="preserve" height="46.21945342970491" width="54.60032000000001" class="icon-icon-0" data-fill-palette-color="accent" id="icon-0"><path d="M70.252 51.597A26.04 26.04 0 0 0 75.081 37.495 1.64 1.64 0 0 0 74.6 36.263 1.6 1.6 0 0 0 73.367 35.783C70.748 35.892 68.197 36.391 65.779 37.236A26.2 26.2 0 0 0 64.216 29.665 1.647 1.647 0 0 0 61.978 28.735 25.9 25.9 0 0 0 55.555 32.968 26.2 26.2 0 0 0 51.226 26.598 1.54 1.54 0 0 0 50.668 26.216 1.645 1.645 0 0 0 48.777 26.598 26.2 26.2 0 0 0 44.449 32.966 25.9 25.9 0 0 0 38.028 28.735 1.647 1.647 0 0 0 35.79 29.664 26.2 26.2 0 0 0 34.224 37.236 26.3 26.3 0 0 0 26.636 35.783 1.65 1.65 0 0 0 24.921 37.495 26.05 26.05 0 0 0 29.751 51.597C24.563 54.002 21.731 57.24 21.731 60.846 21.731 62.812 22.575 64.678 24.239 66.393A1.66 1.66 0 0 0 25.852 66.835C29.062 65.964 31.567 66.189 32.862 67.483 33.55 68.171 33.938 69.211 34.014 70.573A1.645 1.645 0 0 0 35.222 72.069C39.649 73.288 44.761 73.932 50.003 73.932 65.856 73.932 78.274 68.183 78.274 60.845 78.271 57.238 75.44 54.002 70.252 51.597M66.443 51.143C66.42 51.166 66.39 51.181 66.368 51.207L66.063 51.557C65.763 51.895 65.466 52.234 65.145 52.555 64.686 53.014 64.205 53.445 63.713 53.86 63.564 53.986 63.41 54.104 63.258 54.225A23 23 0 0 1 60.369 56.195C60.246 56.266 60.126 56.342 60.002 56.411 59.442 56.719 58.871 57.001 58.288 57.26 58.16 57.317 58.028 57.364 57.899 57.419 57.437 57.613 56.969 57.794 56.495 57.958 56.304 58.024 56.11 58.086 55.917 58.146 55.476 58.286 55.028 58.411 54.577 58.523 54.394 58.569 54.213 58.619 54.028 58.66 53.942 58.68 53.854 58.689 53.769 58.708 53.79 58.677 53.807 58.644 53.828 58.613L53.885 58.526 53.891 58.52 53.906 58.498 53.926 58.471 53.952 58.43 53.997 58.363 54.005 58.351C54.01 58.344 54.012 58.336 54.016 58.33 54.237 57.987 54.449 57.641 54.652 57.288L54.662 57.272C54.804 57.026 54.939 56.777 55.073 56.526L55.08 56.518 55.084 56.511 55.151 56.387H55.15L55.156 56.378 55.162 56.36C55.477 55.758 55.769 55.146 56.036 54.523L56.041 54.516 56.043 54.511 56.074 54.439 56.079 54.426 56.124 54.322C56.127 54.316 56.126 54.309 56.128 54.303 56.394 53.667 56.636 53.023 56.85 52.368L56.915 52.171 56.912 52.17A26 26 0 0 0 57.51 49.962H57.511L57.512 49.954C57.681 49.196 57.818 48.431 57.918 47.657L57.92 47.64C57.989 47.106 58.04 46.569 58.077 46.029 58.078 46.003 58.083 45.978 58.084 45.951 58.153 45.874 58.22 45.796 58.294 45.722 58.761 45.255 59.248 44.81 59.754 44.387 59.784 44.362 59.817 44.34 59.848 44.314A22.8 22.8 0 0 1 64.844 41.176C64.854 41.172 64.861 41.164 64.87 41.159A22.9 22.9 0 0 1 71.639 39.226 22.7 22.7 0 0 1 66.443 51.143M54.76 45.969A23 23 0 0 1 54.541 47.859C54.514 48.025 54.483 48.189 54.453 48.354 54.37 48.81 54.276 49.264 54.166 49.713 54.121 49.896 54.069 50.076 54.02 50.257 53.904 50.686 53.78 51.112 53.638 51.533 53.572 51.727 53.497 51.92 53.426 52.112A23 23 0 0 1 52.954 53.314C52.869 53.51 52.772 53.703 52.682 53.897 52.502 54.282 52.321 54.667 52.12 55.042 52.018 55.231 51.903 55.414 51.796 55.601 51.583 55.972 51.372 56.343 51.138 56.703 51.02 56.885 50.887 57.057 50.764 57.234 50.521 57.585 50.282 57.937 50.018 58.276L50.008 58.288C49.972 58.241 49.931 58.198 49.895 58.151 49.752 57.964 49.624 57.771 49.487 57.581A23 23 0 0 1 48.764 56.535C48.654 56.362 48.554 56.182 48.449 56.007 48.217 55.621 47.989 55.234 47.78 54.835 47.693 54.669 47.615 54.499 47.532 54.331A24 24 0 0 1 46.951 53.072C46.879 52.9 46.815 52.725 46.747 52.551A22 22 0 0 1 46.282 51.261C46.22 51.072 46.166 50.879 46.11 50.687 45.986 50.267 45.872 49.843 45.772 49.415 45.722 49.199 45.678 48.982 45.634 48.765A23 23 0 0 1 45.419 47.532 24 24 0 0 1 45.225 45.602C45.22 45.507 45.218 45.411 45.213 45.315L45.214 45.3C45.214 45.287 45.211 45.275 45.21 45.261 45.196 44.936 45.169 44.613 45.169 44.286 45.169 43.63 45.199 42.977 45.255 42.328 45.273 42.126 45.308 41.928 45.331 41.727 45.382 41.278 45.433 40.83 45.51 40.386 45.547 40.173 45.601 39.964 45.644 39.753 45.732 39.321 45.821 38.889 45.935 38.462 45.987 38.266 46.053 38.073 46.11 37.879 46.239 37.441 46.373 37.005 46.528 36.574A22.8 22.8 0 0 1 49.999 30.276 22.73 22.73 0 0 1 54.829 44.286C54.83 44.851 54.801 45.411 54.76 45.969M56.873 36.247A22.7 22.7 0 0 1 61.694 32.581C62.241 34.554 62.518 36.578 62.525 38.626A26 26 0 0 0 58.076 41.507C58.052 41.527 58.025 41.545 58.001 41.564 57.989 41.455 57.971 41.347 57.958 41.238A25 25 0 0 0 57.846 40.376C57.824 40.229 57.798 40.082 57.773 39.934A28 28 0 0 0 57.527 38.666 26 26 0 0 0 57.308 37.752C57.28 37.641 57.25 37.529 57.22 37.417A27 27 0 0 0 56.921 36.406C56.903 36.354 56.891 36.3 56.873 36.247M38.307 32.581A22.8 22.8 0 0 1 43.129 36.248 26 26 0 0 0 42.003 41.567C41.981 41.548 41.957 41.532 41.934 41.514A26 26 0 0 0 37.475 38.625C37.48 36.576 37.76 34.553 38.307 32.581M35.131 41.161C35.14 41.165 35.148 41.173 35.157 41.178A22.7 22.7 0 0 1 40.139 44.305C40.175 44.334 40.213 44.36 40.249 44.39 40.755 44.813 41.242 45.258 41.708 45.724 41.782 45.799 41.85 45.877 41.918 45.955A25.95 25.95 0 0 0 46.233 58.709C46.151 58.691 46.067 58.682 45.985 58.663 45.788 58.619 45.594 58.567 45.399 58.517A22 22 0 0 1 42.12 57.427C41.983 57.369 41.842 57.32 41.706 57.259A23 23 0 0 1 40 56.414C39.871 56.343 39.747 56.263 39.619 56.189A22 22 0 0 1 38.356 55.41 23 23 0 0 1 36.739 54.224C36.588 54.103 36.434 53.985 36.286 53.86A23 23 0 0 1 34.852 52.554C34.531 52.234 34.234 51.895 33.935 51.558 33.832 51.44 33.726 51.321 33.627 51.204 33.606 51.18 33.577 51.165 33.555 51.142A22.7 22.7 0 0 1 28.361 39.226C30.726 39.518 33.002 40.182 35.131 41.161M50 70.638C45.47 70.638 41.059 70.133 37.166 69.173 36.885 67.535 36.223 66.188 35.189 65.153 33.176 63.14 30.004 62.53 26.002 63.407 25.352 62.553 25.023 61.695 25.023 60.845 25.023 58.512 27.575 56.083 31.908 54.238 32.111 54.455 32.313 54.673 32.524 54.884A25.98 25.98 0 0 0 49.997 62.493H50.02L50.029 62.492 50.065 62.491A26 26 0 0 0 67.476 54.884C67.687 54.673 67.889 54.455 68.092 54.238 72.426 56.084 74.977 58.512 74.977 60.845 74.977 65.478 64.719 70.638 50 70.638" fill="#000000" data-fill-palette-color="accent"></path></svg></g></svg></g><g><rect width="76.69984" height="4.147663437213254" y="41.07178999249166" x="147.30016" fill="#000000" data-fill-palette-color="accent"></rect><rect width="76.69984" height="4.147663437213254" y="41.07178999249166" x="0" fill="#000000" data-fill-palette-color="accent"></rect><rect width="76.69984" height="4.147663437213254" y="32.77646311806515" x="147.30016" fill="#000000" data-fill-palette-color="accent"></rect><rect width="76.69984" height="4.147663437213254" y="32.77646311806515" x="0" fill="#000000" data-fill-palette-color="accent"></rect></g></svg></g></svg></g></svg></g><defs></defs></svg><rect width="320" height="360" fill="none" stroke="none" visibility="hidden"></rect></g></svg></g></svg>